<svg enable-background="new 0 0 256 256" height="512" viewBox="0 0 256 256" width="512" xmlns="http://www.w3.org/2000/svg"><path d="m250.292 100.244-24.27 87.803c-1.198 4.334-5.142 7.336-9.639 7.336h-116.866l-58.143-107.804h199.28c6.608 0 11.399 6.295 9.638 12.665z" fill="#44c7b6"/><circle cx="198.044" cy="219.454" fill="#87828e" r="13.206"/><circle cx="143.743" cy="219.454" fill="#87828e" r="13.206"/><path d="m111.882 87.582h-43.085v-46.63c0-2.761 2.239-5 5-5h33.085c2.761 0 5 2.239 5 5z" fill="#ff4a73"/><path d="m204.945 87.582h-93.063v-34.963h88.063c2.761 0 5 2.239 5 5z" fill="#f9d335"/><path d="m111.887 40.955v46.63h-15v-46.63c0-2.76-2.24-5-5-5h15c2.76 0 5 2.24 5 5z" fill="#ea2a6a"/><path d="m88.797 35.955c-2.76 0-5 2.24-5 5v46.63h-15v-46.63c0-2.76 2.24-5 5-5z" fill="#f973a3"/><path d="m111.887 52.615h15v34.97h-15z" fill="#f9e27d"/><path d="m204.947 57.615v29.97h-15v-29.97c0-2.76-2.24-5-5-5h15c2.76 0 5 2.24 5 5z" fill="#f2c300"/><path d="m151.247 230.315c-2.12 1.48-4.71 2.34-7.5 2.34-7.3 0-13.21-5.91-13.21-13.2s5.91-13.21 13.21-13.21c2.79 0 5.38.86 7.5 2.34-3.45 2.38-5.71 6.36-5.71 10.87s2.26 8.49 5.71 10.86z" fill="#a4a4a5"/><path d="m205.547 230.315c-2.12 1.48-4.71 2.34-7.5 2.34-7.3 0-13.21-5.91-13.21-13.2s5.91-13.21 13.21-13.21c2.79 0 5.38.86 7.5 2.34-3.45 2.38-5.71 6.36-5.71 10.87s2.26 8.49 5.71 10.86z" fill="#a4a4a5"/><circle cx="186.545" cy="77.922" fill="#ffe2e2" r="54.575"/><path d="m194.047 131.975c-2.45.35-4.95.52-7.5.52-30.14 0-54.58-24.43-54.58-54.57s24.44-54.58 54.58-54.58c2.55 0 5.05.17 7.5.52-26.59 3.65-47.08 26.47-47.08 54.06s20.49 50.4 47.08 54.05z" fill="#ffefee"/><path d="m194.047 131.975c-2.45.35-4.95.52-7.5.52-30.14 0-54.58-24.43-54.58-54.57s24.44-54.58 54.58-54.58c2.55 0 5.05.17 7.5.52-26.59 3.65-47.08 26.47-47.08 54.06s20.49 50.4 47.08 54.05z" fill="#ffefee"/><path d="m116.517 195.385h-17l-58.14-107.81h17z" fill="#4bdbc3"/><path d="m250.297 100.245-24.27 87.8c-1.2 4.34-5.15 7.34-9.64 7.34h-17c4.49 0 8.44-3 9.64-7.34l24.27-87.8c1.76-6.37-3.04-12.67-9.64-12.67h17c6.6 0 11.4 6.3 9.64 12.67z" fill="#3bb2a0"/><path d="m241.117 77.925c0 30.14-24.43 54.57-54.57 54.57-2.55 0-5.05-.17-7.5-.52 26.59-3.65 47.07-26.46 47.07-54.05s-20.48-50.41-47.07-54.06c2.45-.35 4.95-.52 7.5-.52 30.14 0 54.57 24.44 54.57 54.58z" fill="#ffcfcf"/><path d="m218.867 63.435-34.31 34.31-4.93 4.94c-.11.11-.23.2-.34.31-.06.04-.11.09-.16.14-.14.11-.28.22-.42.32-.06.04-.12.08-.17.12-.15.1-.3.19-.46.28-.05.03-.11.07-.17.1-.16.08-.32.16-.49.23-.05.02-.1.05-.16.08-.17.07-.35.13-.52.18-.05.02-.1.04-.15.06-.19.05-.38.1-.57.14-.04.01-.08.02-.12.03-.21.04-.42.07-.64.09-.02 0-.04.01-.06.01-.24.02-.47.03-.71.03-.23 0-.46-.01-.69-.03-.02 0-.04 0-.06-.01-.21-.02-.42-.05-.63-.09-.04 0-.07-.02-.11-.02-.19-.04-.38-.09-.57-.14-.04-.02-.09-.03-.14-.05-.17-.05-.35-.11-.52-.18-.05-.02-.1-.05-.15-.07-.17-.07-.33-.14-.49-.23-.06-.03-.11-.06-.16-.09-.16-.09-.31-.17-.45-.27-.06-.04-.12-.08-.18-.12-.14-.1-.28-.2-.41-.31-.06-.04-.11-.09-.17-.14-.11-.1-.22-.19-.33-.29l-21.12-20.45c-2.89-2.79-2.96-7.39-.17-10.27 2.79-2.89 7.39-2.96 10.28-.17l8.47 8.2 7.52 7.28 34.18-34.19c2.84-2.84 7.44-2.84 10.28 0 2.84 2.83 2.84 7.44 0 10.27z" fill="#ff4a73"/><path d="m184.557 97.745-4.93 4.94c-.11.11-.23.2-.34.31-.06.04-.11.09-.16.14-.14.11-.28.22-.42.32-.06.04-.12.08-.17.12-.15.1-.3.19-.46.28-.05.03-.11.07-.17.1-.16.08-.32.16-.49.23-.05.02-.1.05-.16.08-.17.07-.35.13-.52.18-.05.02-.1.04-.15.06-.19.05-.38.1-.57.14-.04.01-.08.02-.12.03-.21.04-.42.07-.64.09-.02 0-.04.01-.06.01-.24.02-.47.03-.71.03-.23 0-.46-.01-.69-.03-.02 0-.04 0-.06-.01-.21-.02-.42-.05-.63-.09-.04 0-.07-.02-.11-.02-.19-.04-.38-.09-.57-.14-.04-.02-.09-.03-.14-.05-.17-.05-.35-.11-.52-.18-.05-.02-.1-.05-.15-.07-.17-.07-.33-.14-.49-.23-.06-.03-.11-.06-.16-.09-.16-.09-.31-.17-.45-.27-.06-.04-.12-.08-.18-.12-.14-.1-.28-.2-.41-.31-.06-.04-.11-.09-.17-.14-.11-.1-.22-.19-.33-.29l-21.12-20.45c-2.89-2.79-2.96-7.39-.17-10.27 2.79-2.89 7.39-2.96 10.28-.17l8.47 8.2z" fill="#f973a3"/><g fill="#5f266d"><path d="m244.787 84.195c3.711-34.743-23.605-64.85-58.24-64.85-21.63 0-40.56 11.79-50.71 29.27h-19.95v-7.66c0-4.96-4.04-9-9-9h-33.09c-4.96 0-9 4.04-9 9v42.62h-21.05c-.94-1.738-10.682-19.824-11.621-21.563-.712-1.319-2.113-2.1-3.52-2.1h-18.272c-4.962 0-9 4.038-9 9v6.018c0 4.962 4.038 9 9 9h6.913c5.285 0 5.292-8 0-8h-6.913c-.551 0-1-.449-1-1v-6.018c0-.551.449-1 1-1h15.871l.001.003h.01c17.171 31.805 21.321 39.515 79.18 146.8 2.89 5.39 8.5 8.74 14.63 8.74h6.98c1.81 7.56 8.63 13.2 16.74 13.2s14.92-5.64 16.73-13.2h20.83c1.81 7.56 8.63 13.2 16.74 13.2s14.93-5.64 16.73-13.2h15.17c5.285 0 5.293-8 0-8h-15.17c-1.8-7.57-8.62-13.21-16.73-13.21s-14.93 5.64-16.74 13.21h-20.83c-1.81-7.57-8.62-13.21-16.73-13.21s-14.93 5.64-16.74 13.21h-6.98c-3.18 0-6.08-1.73-7.58-4.53l-6.23-11.54h110.17c6.27 0 11.82-4.23 13.49-10.27 2.935-10.608 21.611-78.209 24.27-87.81 2.107-7.587-2.434-15.002-9.359-17.11zm-110.25 135.26c0-5.027 4.089-9.21 9.21-9.21 5.061 0 9.2 4.115 9.2 9.21 0 5.022-4.081 9.2-9.2 9.2-5.107 0-9.21-4.158-9.21-9.2zm54.3 0c0-5.027 4.089-9.21 9.21-9.21 5.059 0 9.2 4.112 9.2 9.21 0 5.023-4.081 9.2-9.2 9.2-5.107 0-9.21-4.158-9.21-9.2zm57.6-120.28-1.65 5.97h-6.39c2.14-4.05 3.82-8.39 4.95-12.94 2.475 1.268 3.879 4.096 3.09 6.97zm-156.17 70.64-7.31-13.56h26.4l7.31 13.56h-26.39zm16.55-35.11h25.87l7.31 13.55h-25.87zm-39.8-8-7.31-13.56h26.39l7.32 13.56h-26.39zm16.54-35.12h25.87l7.32 13.56h-25.87zm102.99-64.24c30.15 0 53.641 26.361 50.25 56.23-2.748 25.101-24.199 44.92-50.25 44.92-26.41 0-47.466-20.023-50.264-44.92-3.36-29.903 20.114-56.23 50.264-56.23zm23.47 120.91h-25.95l-6.74-12.49c3 .48 6.08.73 9.22.73 4.96 0 9.78-.62 14.38-1.79.52-.13 1.04-.27 1.56-.42l.22.42zm-68.24-13.55h25.89l7.31 13.55h-25.89zm-11.63-21.56h9.62c4 5.29 8.87 9.89 14.4 13.56h-16.71zm-11.63-21.56h11.06c1.14 4.78 2.87 9.32 5.11 13.56h-8.85zm110.57 26.56 4.62 8.56h-14.78c3.71-2.46 7.12-5.34 10.16-8.56zm-133.9-5h25.87l7.31 13.56h-25.86zm23.26 43.11h25.86l7.31 13.56h-25.86zm34.95 0h25.89l7.32 13.56h-25.9zm34.98 0h25.96l7.32 13.56h-25.96zm39.83 8.86-4.78-8.86h7.23zm-9.09-16.86-7.31-13.55h24.81l-3.75 13.55zm21.06-26.42-4.69-8.69h7.09zm-108.2-65.22c-3.439 8.776-4.601 18.059-3.74 26.96h-12.35v-26.96zm-59.18-15.66c0-.55.45-1 1-1h33.09c.55 0 1 .45 1 1v42.62h-35.09zm1.67 50.63 7.32 13.56h-26.39l-7.32-13.57c11.699 0 23.441.01 26.39.01zm23.26 43.12 7.31 13.55h-26.39l-7.31-13.55zm4.18 56.68-7.32-13.57h26.4l7.32 13.57zm35.49 0-7.32-13.57h25.86l7.32 13.57zm34.95 0-7.32-13.57h25.9l7.32 13.57zm49.82-4.4c-.72 2.59-3.09 4.4-5.78 4.4h-9.05l-7.32-13.57h24.68z"/><path d="m92.327 72.635v2.29c0 5.285 8 5.293 8 0v-2.29c0-5.288-8-5.285-8 0z"/><path d="m92.327 48.635v9c0 5.285 8 5.293 8 0v-9c0-5.288-8-5.285-8 0z"/><path d="m144.157 83.585c.817 1.198-.431-.128 21.98 21.56 4.869 4.678 11.399 5.291 16.69 0 29.907-29.907 4.182-4.192 38.87-38.88 10.46-10.46-5.388-26.472-15.93-15.93-10.853 10.85 11.149-11.142-31.41 31.4l-13.16-12.74c-9.552-9.191-24.96 3.362-17.05 14.58zm11.47-8.84c12.714 12.31 7.753 7.507 15.99 15.48 1.57 1.52 4.07 1.5 5.61-.05 12.316-12.316 16.391-16.381 34.19-34.18 3.07-3.07 7.672 1.582 4.62 4.61-32.356 32.356-4.546 4.556-39.21 39.22-1.494 1.318-3.506 1.154-4.46.2-13.962-13.499-4.481-4.331-21.28-20.58-3.104-3.006 1.45-7.69 4.54-4.7z"/></g></svg>